<svg width="105" height="104" viewBox="0 0 105 104" fill="none" xmlns="http://www.w3.org/2000/svg">
<path d="M88.5 0H16.5C7.66345 0 0.5 7.16344 0.5 16V88C0.5 96.8366 7.66344 104 16.5 104H88.5C97.3366 104 104.5 96.8366 104.5 88V16C104.5 7.16345 97.3366 0 88.5 0Z" fill="#EA9E24"/>
<path d="M88.5 0H16.5C7.66345 0 0.5 7.16344 0.5 16V88C0.5 96.8366 7.66344 104 16.5 104H88.5C97.3366 104 104.5 96.8366 104.5 88V16C104.5 7.16345 97.3366 0 88.5 0Z" fill="url(#paint0_linear_176_6131)"/>
<rect x="14.3667" y="13.8667" width="76.2667" height="76.2667" rx="16" fill="url(#paint1_linear_176_6131)"/>
<defs>
<linearGradient id="paint0_linear_176_6131" x1="52.5" y1="-12.5" x2="115.418" y2="63.2182" gradientUnits="userSpaceOnUse">
<stop stop-color="#FF8181"/>
<stop offset="1" stop-color="#FFB067"/>
</linearGradient>
<linearGradient id="paint1_linear_176_6131" x1="52.5" y1="13.8667" x2="52.5" y2="90.1334" gradientUnits="userSpaceOnUse">
<stop stop-color="#474752"/>
<stop offset="1" stop-color="#141415"/>
</linearGradient>
</defs>
</svg>
