<svg width="105" height="104" viewBox="0 0 105 104" fill="none" xmlns="http://www.w3.org/2000/svg">
<g clip-path="url(#clip0_176_6119)">
<path d="M104.5 0H0.5V104H104.5V0Z" fill="#FF2E60"/>
<path d="M104.5 0H0.5V104H104.5V0Z" fill="url(#paint0_linear_176_6119)"/>
<path d="M30.9502 89.915C40.0919 89.915 47.5885 82.5139 47.6943 73.3842C47.8001 64.2545 40.475 56.8534 31.3333 56.8534C22.1916 56.8534 14.695 64.2545 14.5892 73.3842C14.4834 82.5139 21.8085 89.915 30.9502 89.915Z" fill="white"/>
<path d="M30.9502 89.915C40.0919 89.915 47.5885 82.5139 47.6943 73.3842C47.8001 64.2545 40.475 56.8534 31.3333 56.8534C22.1916 56.8534 14.695 64.2545 14.5892 73.3842C14.4834 82.5139 21.8085 89.915 30.9502 89.915Z" fill="url(#paint1_linear_176_6119)"/>
<path d="M73.2397 89.9356C82.3757 89.9356 89.8682 82.5299 89.9747 73.3945C90.0811 64.2591 82.7612 56.8534 73.6252 56.8534C64.4892 56.8534 56.9967 64.2591 56.8902 73.3945C56.7838 82.5299 64.1037 89.9356 73.2397 89.9356Z" fill="white"/>
<path d="M73.2397 89.9356C82.3757 89.9356 89.8682 82.5299 89.9747 73.3945C90.0811 64.2591 82.7612 56.8534 73.6252 56.8534C64.4892 56.8534 56.9967 64.2591 56.8902 73.3945C56.7838 82.5299 64.1037 89.9356 73.2397 89.9356Z" fill="url(#paint2_linear_176_6119)"/>
<path d="M30.9502 46.9283C40.0919 46.9283 47.5885 39.5272 47.6943 30.3975C47.8001 21.2678 40.475 13.8667 31.3333 13.8667C22.1916 13.8667 14.695 21.2678 14.5892 30.3975C14.4834 39.5272 21.8085 46.9283 30.9502 46.9283Z" fill="url(#paint3_linear_176_6119)"/>
<path d="M73.2397 46.9489C82.3757 46.9489 89.8682 39.5432 89.9747 30.4078C90.0811 21.2724 82.7612 13.8667 73.6252 13.8667C64.4892 13.8667 56.9967 21.2724 56.8902 30.4078C56.7838 39.5432 64.1037 46.9489 73.2397 46.9489Z" fill="white"/>
<path d="M73.2397 46.9489C82.3757 46.9489 89.8682 39.5432 89.9747 30.4078C90.0811 21.2724 82.7612 13.8667 73.6252 13.8667C64.4892 13.8667 56.9967 21.2724 56.8902 30.4078C56.7838 39.5432 64.1037 46.9489 73.2397 46.9489Z" fill="url(#paint4_linear_176_6119)"/>
</g>
<defs>
<linearGradient id="paint0_linear_176_6119" x1="52.5" y1="-12.5" x2="115.418" y2="63.2182" gradientUnits="userSpaceOnUse">
<stop stop-color="#E681FF"/>
<stop offset="1" stop-color="#6A67FF"/>
</linearGradient>
<linearGradient id="paint1_linear_176_6119" x1="31.3333" y1="56.8534" x2="31.3333" y2="89.915" gradientUnits="userSpaceOnUse">
<stop stop-color="#474752"/>
<stop offset="1" stop-color="#141415"/>
</linearGradient>
<linearGradient id="paint2_linear_176_6119" x1="73.6252" y1="56.8534" x2="73.6252" y2="89.9356" gradientUnits="userSpaceOnUse">
<stop stop-color="#474752"/>
<stop offset="1" stop-color="#141415"/>
</linearGradient>
<linearGradient id="paint3_linear_176_6119" x1="31.3333" y1="13.8667" x2="31.3333" y2="46.9283" gradientUnits="userSpaceOnUse">
<stop stop-color="#474752"/>
<stop offset="1" stop-color="#141415"/>
</linearGradient>
<linearGradient id="paint4_linear_176_6119" x1="73.6252" y1="13.8667" x2="73.6252" y2="46.9489" gradientUnits="userSpaceOnUse">
<stop stop-color="#474752"/>
<stop offset="1" stop-color="#141415"/>
</linearGradient>
<clipPath id="clip0_176_6119">
<rect x="0.5" width="104" height="104" rx="16" fill="white"/>
</clipPath>
</defs>
</svg>
