<svg width="105" height="104" viewBox="0 0 105 104" fill="none" xmlns="http://www.w3.org/2000/svg">
<path d="M88.5 0H16.5C7.66345 0 0.5 7.16344 0.5 16V88C0.5 96.8366 7.66344 104 16.5 104H88.5C97.3366 104 104.5 96.8366 104.5 88V16C104.5 7.16345 97.3366 0 88.5 0Z" fill="url(#paint0_linear_176_6102)"/>
<path d="M52.5 90.1333C73.5605 90.1333 90.6334 73.0604 90.6334 52C90.6334 30.9395 73.5605 13.8666 52.5 13.8666C31.4396 13.8666 14.3667 30.9395 14.3667 52C14.3667 73.0604 31.4396 90.1333 52.5 90.1333Z" fill="url(#paint1_linear_176_6102)"/>
<defs>
<linearGradient id="paint0_linear_176_6102" x1="52.5" y1="-12.5" x2="115.418" y2="63.2182" gradientUnits="userSpaceOnUse">
<stop stop-color="#81F0FF"/>
<stop offset="1" stop-color="#676DFF"/>
</linearGradient>
<linearGradient id="paint1_linear_176_6102" x1="52.5" y1="13.8666" x2="52.5" y2="90.1333" gradientUnits="userSpaceOnUse">
<stop stop-color="#474752"/>
<stop offset="1" stop-color="#141415"/>
</linearGradient>
</defs>
</svg>
