<svg width="49" height="48" viewBox="0 0 49 48" fill="none" xmlns="http://www.w3.org/2000/svg">
<path d="M34.1 18H26V26.88L30.14 22.74C30.44 22.44 30.82 22.3 31.2 22.3C31.58 22.3 31.96 22.44 32.26 22.74C32.84 23.32 32.84 24.28 32.26 24.86L25.56 31.56C24.98 32.14 24.02 32.14 23.44 31.56L16.74 24.86C16.16 24.28 16.16 23.32 16.74 22.74C17.32 22.16 18.28 22.16 18.86 22.74L23 26.88V18H14.9C8.5 18 4.5 22 4.5 28.4V33.58C4.5 40 8.5 44 14.9 44H34.08C40.48 44 44.48 40 44.48 33.6V28.4C44.5 22 40.5 18 34.1 18Z" fill="#292D32"/>
<path d="M34.1 18H26V26.88L30.14 22.74C30.44 22.44 30.82 22.3 31.2 22.3C31.58 22.3 31.96 22.44 32.26 22.74C32.84 23.32 32.84 24.28 32.26 24.86L25.56 31.56C24.98 32.14 24.02 32.14 23.44 31.56L16.74 24.86C16.16 24.28 16.16 23.32 16.74 22.74C17.32 22.16 18.28 22.16 18.86 22.74L23 26.88V18H14.9C8.5 18 4.5 22 4.5 28.4V33.58C4.5 40 8.5 44 14.9 44H34.08C40.48 44 44.48 40 44.48 33.6V28.4C44.5 22 40.5 18 34.1 18Z" fill="url(#paint0_linear_211_6559)"/>
<path d="M26 5.5C26 4.68 25.32 4 24.5 4C23.68 4 23 4.68 23 5.5V18H26V5.5Z" fill="#292D32"/>
<path d="M26 5.5C26 4.68 25.32 4 24.5 4C23.68 4 23 4.68 23 5.5V18H26V5.5Z" fill="url(#paint1_linear_211_6559)"/>
<defs>
<linearGradient id="paint0_linear_211_6559" x1="24.49" y1="18" x2="24.49" y2="44" gradientUnits="userSpaceOnUse">
<stop stop-color="#474752"/>
<stop offset="1" stop-color="#141415"/>
</linearGradient>
<linearGradient id="paint1_linear_211_6559" x1="24.5" y1="4" x2="24.5" y2="18" gradientUnits="userSpaceOnUse">
<stop stop-color="#474752"/>
<stop offset="1" stop-color="#141415"/>
</linearGradient>
</defs>
</svg>
