<svg width="49" height="48" viewBox="0 0 49 48" fill="none" xmlns="http://www.w3.org/2000/svg">
<path d="M42.5 44H6.5C5.68 44 5 43.32 5 42.5C5 41.68 5.68 41 6.5 41H42.5C43.32 41 44 41.68 44 42.5C44 43.32 43.32 44 42.5 44Z" fill="black"/>
<path d="M42.5 44H6.5C5.68 44 5 43.32 5 42.5C5 41.68 5.68 41 6.5 41H42.5C43.32 41 44 41.68 44 42.5C44 43.32 43.32 44 42.5 44Z" fill="url(#paint0_linear_211_6540)"/>
<path d="M38.5401 6.96007C34.6601 3.08007 30.8601 2.98007 26.8801 6.96007L24.4601 9.38007C24.2601 9.58007 24.1801 9.90007 24.2601 10.1801C25.7801 15.4801 30.0201 19.7201 35.3201 21.2401C35.4001 21.2601 35.4802 21.2801 35.5602 21.2801C35.7802 21.2801 35.9801 21.2001 36.1401 21.0401L38.5401 18.6201C40.5201 16.6601 41.4801 14.7601 41.4801 12.8401C41.5001 10.8601 40.5401 8.94007 38.5401 6.96007Z" fill="black"/>
<path d="M38.5401 6.96007C34.6601 3.08007 30.8601 2.98007 26.8801 6.96007L24.4601 9.38007C24.2601 9.58007 24.1801 9.90007 24.2601 10.1801C25.7801 15.4801 30.0201 19.7201 35.3201 21.2401C35.4001 21.2601 35.4802 21.2801 35.5602 21.2801C35.7802 21.2801 35.9801 21.2001 36.1401 21.0401L38.5401 18.6201C40.5201 16.6601 41.4801 14.7601 41.4801 12.8401C41.5001 10.8601 40.5401 8.94007 38.5401 6.96007Z" fill="url(#paint1_linear_211_6540)"/>
<path d="M31.7197 23.0601C31.1397 22.7801 30.5797 22.5001 30.0397 22.1801C29.5997 21.9201 29.1797 21.6401 28.7597 21.3401C28.4197 21.1201 28.0197 20.8001 27.6397 20.4801C27.5997 20.4601 27.4597 20.3401 27.2997 20.1801C26.6397 19.6201 25.8997 18.9001 25.2397 18.1001C25.1797 18.0601 25.0797 17.9201 24.9397 17.7401C24.7397 17.5001 24.3997 17.1001 24.0997 16.6401C23.8597 16.3401 23.5797 15.9001 23.3197 15.4601C22.9997 14.9201 22.7197 14.3801 22.4397 13.8201C22.282 13.4823 22.1434 13.1508 22.0166 12.8292C21.883 12.4901 21.4459 12.3939 21.1881 12.6516L9.17966 24.6601C8.91966 24.9201 8.67966 25.4201 8.61966 25.7601L7.53966 33.4201C7.33966 34.7801 7.71966 36.0601 8.55966 36.9201C9.27966 37.6201 10.2797 38.0001 11.3597 38.0001C11.5997 38.0001 11.8397 37.9801 12.0797 37.9401L19.7597 36.8601C20.1197 36.8001 20.6197 36.5601 20.8597 36.3001L32.861 24.2988C33.1205 24.0392 33.0217 23.5964 32.6806 23.4609C32.3697 23.3374 32.054 23.205 31.7197 23.0601Z" fill="black"/>
<path d="M31.7197 23.0601C31.1397 22.7801 30.5797 22.5001 30.0397 22.1801C29.5997 21.9201 29.1797 21.6401 28.7597 21.3401C28.4197 21.1201 28.0197 20.8001 27.6397 20.4801C27.5997 20.4601 27.4597 20.3401 27.2997 20.1801C26.6397 19.6201 25.8997 18.9001 25.2397 18.1001C25.1797 18.0601 25.0797 17.9201 24.9397 17.7401C24.7397 17.5001 24.3997 17.1001 24.0997 16.6401C23.8597 16.3401 23.5797 15.9001 23.3197 15.4601C22.9997 14.9201 22.7197 14.3801 22.4397 13.8201C22.282 13.4823 22.1434 13.1508 22.0166 12.8292C21.883 12.4901 21.4459 12.3939 21.1881 12.6516L9.17966 24.6601C8.91966 24.9201 8.67966 25.4201 8.61966 25.7601L7.53966 33.4201C7.33966 34.7801 7.71966 36.0601 8.55966 36.9201C9.27966 37.6201 10.2797 38.0001 11.3597 38.0001C11.5997 38.0001 11.8397 37.9801 12.0797 37.9401L19.7597 36.8601C20.1197 36.8001 20.6197 36.5601 20.8597 36.3001L32.861 24.2988C33.1205 24.0392 33.0217 23.5964 32.6806 23.4609C32.3697 23.3374 32.054 23.205 31.7197 23.0601Z" fill="url(#paint2_linear_211_6540)"/>
<defs>
<linearGradient id="paint0_linear_211_6540" x1="24.5" y1="41" x2="24.5" y2="44" gradientUnits="userSpaceOnUse">
<stop stop-color="#474752"/>
<stop offset="1" stop-color="#141415"/>
</linearGradient>
<linearGradient id="paint1_linear_211_6540" x1="32.855" y1="4.01245" x2="32.855" y2="21.2801" gradientUnits="userSpaceOnUse">
<stop stop-color="#474752"/>
<stop offset="1" stop-color="#141415"/>
</linearGradient>
<linearGradient id="paint2_linear_211_6540" x1="20.4535" y1="12.1001" x2="20.4535" y2="38.0001" gradientUnits="userSpaceOnUse">
<stop stop-color="#474752"/>
<stop offset="1" stop-color="#141415"/>
</linearGradient>
</defs>
</svg>
