<svg width="49" height="48" viewBox="0 0 49 48" fill="none" xmlns="http://www.w3.org/2000/svg">
<path d="M39.1799 28.98L37.1799 25.66C36.7599 24.92 36.3799 23.52 36.3799 22.7V17.64C36.3799 12.94 33.6199 8.88 29.6399 6.98C28.5999 5.14 26.6799 4 24.4799 4C22.2999 4 20.3399 5.18 19.2999 7.04C15.3999 8.98 12.6999 13 12.6999 17.64V22.7C12.6999 23.52 12.3199 24.92 11.8999 25.64L9.87989 28.98C9.07989 30.32 8.89989 31.8 9.39989 33.16C9.87989 34.5 11.0199 35.54 12.4999 36.04C16.3799 37.36 20.4599 38 24.5399 38C28.6199 38 32.6999 37.36 36.5799 36.06C37.9799 35.6 39.0599 34.54 39.5799 33.16C40.0999 31.78 39.9599 30.26 39.1799 28.98Z" fill="#292D32"/>
<path d="M39.1799 28.98L37.1799 25.66C36.7599 24.92 36.3799 23.52 36.3799 22.7V17.64C36.3799 12.94 33.6199 8.88 29.6399 6.98C28.5999 5.14 26.6799 4 24.4799 4C22.2999 4 20.3399 5.18 19.2999 7.04C15.3999 8.98 12.6999 13 12.6999 17.64V22.7C12.6999 23.52 12.3199 24.92 11.8999 25.64L9.87989 28.98C9.07989 30.32 8.89989 31.8 9.39989 33.16C9.87989 34.5 11.0199 35.54 12.4999 36.04C16.3799 37.36 20.4599 38 24.5399 38C28.6199 38 32.6999 37.36 36.5799 36.06C37.9799 35.6 39.0599 34.54 39.5799 33.16C40.0999 31.78 39.9599 30.26 39.1799 28.98Z" fill="url(#paint0_linear_211_6603)"/>
<path d="M30.1604 40.02C29.3204 42.34 27.1004 44 24.5004 44C22.9204 44 21.3604 43.36 20.2604 42.22C19.6204 41.62 19.1404 40.82 18.8604 40C19.1204 40.04 19.3804 40.06 19.6604 40.1C20.1204 40.16 20.6004 40.22 21.0804 40.26C22.2204 40.36 23.3804 40.42 24.5404 40.42C25.6804 40.42 26.8204 40.36 27.9404 40.26C28.3604 40.22 28.7804 40.2 29.1804 40.14C29.5004 40.1 29.8204 40.06 30.1604 40.02Z" fill="#292D32"/>
<path d="M30.1604 40.02C29.3204 42.34 27.1004 44 24.5004 44C22.9204 44 21.3604 43.36 20.2604 42.22C19.6204 41.62 19.1404 40.82 18.8604 40C19.1204 40.04 19.3804 40.06 19.6604 40.1C20.1204 40.16 20.6004 40.22 21.0804 40.26C22.2204 40.36 23.3804 40.42 24.5404 40.42C25.6804 40.42 26.8204 40.36 27.9404 40.26C28.3604 40.22 28.7804 40.2 29.1804 40.14C29.5004 40.1 29.8204 40.06 30.1604 40.02Z" fill="url(#paint1_linear_211_6603)"/>
<defs>
<linearGradient id="paint0_linear_211_6603" x1="24.5047" y1="4" x2="24.5047" y2="38" gradientUnits="userSpaceOnUse">
<stop stop-color="#474752"/>
<stop offset="1" stop-color="#141415"/>
</linearGradient>
<linearGradient id="paint1_linear_211_6603" x1="24.5104" y1="40" x2="24.5104" y2="44" gradientUnits="userSpaceOnUse">
<stop stop-color="#474752"/>
<stop offset="1" stop-color="#141415"/>
</linearGradient>
</defs>
</svg>
